<svg xmlns="http://www.w3.org/2000/svg" width="1000" height="323.62457" viewBox="0 0 999.99998 323.62457"><g style="fill:#000"><path d="M0 0h95.648L20.243 323.38H0ZM1000 0h-95.648l75.405 323.38H1000z" style="fill:#000;fill-opacity:1;stroke-width:16.8709"/><g style="fill:#000"><path d="m46.07 79.295 19.744-2.229-3.29 12.208L20.7 93.2l1.273-9.766 25.747-27.74s3.152-2.998 3.152-6.117c0-2.568-1.331-5.086-4.785-5.086-7.576 0-8.369 8.613-8.369 8.613l-15.2 2.665s-5.895-21.92 19.966-25.295c9.393-1.227 22.194 4.384 22.744 17.038.278 6.397-2.928 10.284-2.928 10.284zM110.168 16.709a50.237 50.237 0 0 0-6.885.33c-17.398 1.996-34.226 21.294-34.226 39.857 0 24.68 22.892 29.499 22.892 29.499l23.569-2.477s26.347-9.42 26.347-38.582c0-13.23-10.6-28.14-31.697-28.627zm-3.13 14.666c11.136.013 16.865 8.68 16.962 16.588.162 13.172-11.748 22.64-22.293 22.744-11.722.117-17.292-9.146-17.264-17.338.037-10.51 10.357-22.008 22.594-21.994Z" style="fill:#000;stroke:none;stroke-width:1px;stroke-linecap:butt;stroke-linejoin:miter;stroke-opacity:1" transform="scale(3.37109)"/></g><g style="fill:#000"><path d="m156.627 11.783-4.033.69v17.302l4.033-.636v-9.186l.053.004 3.468-.93v-3.795l-3.521.944z" style="fill:#000;fill-opacity:1;stroke:none;stroke-width:3.77953" transform="scale(3.37109)"/><path d="m167.91 27.585-4.24.638-.113-24.958 4.316-.6.113 11.334s1.575-1.089 2.477-1.089c2.922 0 4.09 3.791 4.09 3.791l.188 10.096-4.128.488.075-9.345s-.27-1.201-1.313-1.201c-1.327 0-1.464 1.426-1.464 1.426z" style="fill:#000;stroke:none;stroke-width:1px;stroke-linecap:butt;stroke-linejoin:miter;stroke-opacity:1" transform="scale(3.37109)"/></g><path d="m960.526 284.919-2.53-15.688-63.26-25.81-400.549 28.185v11.81l397.211-26.481zM892.588 147.163l-398.4 41.065v11.812l13.187 6.617s-5.9 13.082-4.214 19.522c1.54 5.878 6.218 10.243 11.207 13.09 2.432 1.387 8.152.545 10.422 1 3.412.684 7.748 3.62 7.658 7.098-.106 4.094-5.373 7.31-9.429 7.875-5.131.715-14.202-6.321-14.202-6.321l-6.433 10.758 2.331 2.22 35.496-2.885s6.355-3.236 5.326-14.314c-.871-9.379-4.507-11.657-9.211-15.308-3.872-3.005-14.196-3.878-14.196-3.878s-6.113-2.622-6.215-5.438c-.138-3.794 4.77-7.613 8.546-7.987 3.764-.373 12.424 4.55 12.424 4.55l5.768-10.43-4.885-3.325 6.992-.44 5.215 2.218-.507 8.145 13.813-1.047-.112 46.142 13.979-.665-.218-47.143 13.86-.777-.882-11.647 10.205-1.107-.889 44.147s1.287 5.683 2.66 8.21c1.205 2.218 4.774 5.88 4.774 5.88l36.272-3.443s3.259-3.194 4.214-5.215c1.565-3.31 2.219-10.758 2.219-10.758l.408-44.378 7.802-1.1 5.432 3.879v56.242l43.153-2.772s8.98-8.628 8.98-29.84c0-17.244-11.535-29.839-11.535-29.839l24.849 7.65v50.475l15.973-.777-.994-64.116 6.761-.33 13.426 5.768s-8.435 15.196-8.435 28.398c0 14.644 11.536 28.397 11.536 28.397l46.036-3.549s13.039-14.423 11.983-32.618c-1.007-17.37-15.756-31.17-15.756-31.17l25.962 8.547s-3.434 11.199-.336 16.638c3.07 5.392 9.22 9.451 14.09 11.312 4.826 1.843 11.729-.485 15.42 1.554 2.451 1.353 5.1 4.221 4.655 6.986-.649 4.03-5.64 6.785-9.652 7.545-7.012 1.328-20.516-6.104-20.516-6.104l-7.322 12.425 3.878 4.108 43.93-3.772s7.374-9.712 6.208-20.523c-1.738-16.12-17.19-17.08-17.19-17.08l-13.202-1.777s-5.528-3.128-5.432-5.768c.155-4.263 5.266-7.72 9.429-8.652 5.712-1.278 16.763 5.222 16.763 5.222l9.725-13.175-14.92-9.33 21.998-2.114 44.798 21.9-4.319-16.402zm-102.43 42.941c8.447.325 16.547 7.346 17.383 19.325.667 9.568-8.51 22.323-18.08 22.959-10.342.687-17.632-10.399-17.64-20.075-.007-9.244 7.423-21.554 16.645-22.182a15.902 15.902 0 0 1 1.692-.027zm-168.627 4.181 13.814 4.438.178 35.785s-2.26 9.68-11.556 10.258c-7.927.494-11.265-10.706-11.265-10.706l.566-39.261zm55.992 6.203c.697-.027 1.695-.04 2.89 0 7.176.241 21.53 2.535 21.53 16.993 0 23.525-25.513 23.67-25.513 23.67v-40.598s.396-.039 1.093-.065zM892.845 58.85 494.187 110.04v11.173l12.082 7.236s-9.09 11.673-8.875 24.184c.339 19.703 11.094 27.291 11.094 27.291l33.941-2.884c2.066-.918 3.756-2.68 5.544-4.22l-7.762-9.758s-5.954 6.433-13.979 6.433c-8.836 0-14.108-8.437-14.643-15.532-.615-8.162 4.697-18.9 13.978-20.187 6.648-.921 14.202 4.214 14.202 4.214l7.098-11.536-6.986-5.037 13.017 3.45v51.067l44.318-5.254v-7.216l-29.964 3.76V156.09l24.868-2.904v-16l-25.573 3.056v-12.155l30.353-2.12-1.646-14.274 9.257 4.003-.079 54.043 14.828-1.495v-30.274l25.099 28.081 18.198-1.883-.158-61.022 7.296 3.681.467 10.594 12.945-2.041.546 46.431 16.078-1.25-.625-47.301 14.748-1.725.31-14.512 4.55 3.53.586 41.242s1.572 7.358 3.496 10.509c2.031 3.326 5.544 5.656 5.544 5.656l36.72-3.444s3.563-4.31 4.55-6.874c1.154-3.002 1.435-9.54 1.435-9.54l-.106-44.37 9.87 7.32.448 51.693 15.196-1.442v-16.197l9.205 14.979 22.63-1.778-13.643-18.304s11.535-4.43 11.535-21.076c0-10.838-6.656-19.41-6.656-19.41l9.316 1.771 23.519 33.171v19.634l15.414-1-.218-21.965 26.179-47.584-1.515-1.12 21.517 12.287-3.311-16.151zm-49.276 22.754 24.967 9.751-8.842 16.526zm-107.52 12.207 18.825 8.941.316 36.865s-.874 7.43-9.574 8c-7.418.485-9.882-6.275-9.882-6.275zm64.532 8.856c4.29.028 10.015 1.062 10.015 6.354 0 11.035-14.644 10.113-14.644 10.113v-16.138s2.055-.346 4.63-.33zm-182.974 5.893 25.415 10.192-.079 17.415z" style="fill:#000;stroke:none;stroke-width:3.37109000000000014px;stroke-linecap:butt;stroke-linejoin:miter;stroke-opacity:1"/></g></svg>