<svg xmlns="http://www.w3.org/2000/svg" xml:space="preserve" width="1000px" height="153.601px" x="0px" y="0px" viewBox="0 0 1000 153.601"><path d="M39.851 55.801V39.994h38.797v-9.918H40.844c2.218-5.633 7.628-10.098 11.167-12.558a52.765 52.765 0 0 1 7.96-4.542v12.92h9.923V.028c-9.504 0-35.7 11.836-39.504 30.513C11.722 34.332 0 60.437 0 69.937l69.913-.009V44.183h-9.942v15.798H12.886a53.416 53.416 0 0 1 4.484-7.828C19.816 48.619 24.3 43.204 29.919 41v14.801h9.932M97.443 39.851h15.784v38.797h9.932V40.849c5.633 2.223 10.098 7.619 12.549 11.162a52.97 52.97 0 0 1 4.555 7.961h-12.929v9.917h25.868c0-9.5-11.822-35.7-30.508-39.49C118.898 11.723 92.802 0 83.289 0l.019 69.908h25.749v-9.937H93.258v-47.08a54.465 54.465 0 0 1 7.833 4.484c3.52 2.451 8.939 6.935 11.148 12.549H97.443v9.927M113.782 97.828v15.799H74.991v9.936h37.79c-2.208 5.615-7.614 10.107-11.147 12.549-2.703 1.883-5.449 3.383-7.956 4.551v-12.928h-9.932v25.867c9.514 0 35.7-11.838 39.504-30.514 18.677-3.789 30.39-29.895 30.39-39.404l-69.904.02v25.752h9.942V93.658h47.08c-1.164 2.479-2.636 5.158-4.493 7.809-2.441 3.543-6.916 8.959-12.559 11.182v-14.82h-9.924M55.806 113.683H40.008V74.896h-9.922v37.799c-5.633-2.223-10.108-7.639-12.559-11.182a53.936 53.936 0 0 1-4.541-7.932h12.92v-9.938H.038c0 9.5 11.836 35.701 30.508 39.51 3.791 18.666 29.9 30.391 39.414 30.391l-.019-69.918H44.183v9.955H59.99v47.061a53.456 53.456 0 0 1-7.823-4.473c-3.548-2.461-8.949-6.926-11.167-12.549h14.806v-9.937M224.098 42.872h-15.204v68.065h64.037v-12.15h-48.833zM293.939 42.872h-.36v68.065h64.037v-12.15h-48.833V81.451h32.783V70.25h-32.783V55.013h48.833V42.872zM618.749 90.626l-44.051-47.098v-.694H560.81v68.076h13.888V63.838l44.051 47.072h13.879V42.834h-13.879zM473.902 42.872h-.361v68.065h64.033v-12.15h-48.829V81.451h32.584V70.25h-32.584V55.013h48.829V42.872zM413.493 86.257h22.989l.095 9.898v.418c-2.754.949-5.69 1.852-9.608 2.65-3.923.816-8.137 1.178-13.039 1.178-3.168 0-6.36-.408-9.504-1.32-3.14-.885-5.662-2.119-8.112-4.01-2.433-1.898-4.28-4.322-5.767-7.361-1.52-3.049-2.237-6.66-2.237-10.877 0-4.284.622-7.59 2.128-10.583a20.851 20.851 0 0 1 6.013-7.296c2.441-1.881 4.94-3.097 8.084-4.009 3.121-.893 6.185-1.215 9.367-1.215 2.57 0 5.135-.048 8.009.304 2.878.342 5.681.902 8.113 1.7 8.587 2.812 10.649 4.75 11.623 5.168l6.07-11.865-7.177-2.651a92.168 92.168 0 0 0-6.645-1.786c-2.655-.656-5.719-1.245-9.163-1.767-3.434-.494-7.044-.75-10.849-.75-6.003 0-11.48.789-16.43 2.365-4.931 1.605-9.163 3.886-12.706 6.859-3.51 3.021-6.222 6.641-8.17 10.877-1.947 4.256-2.916 9.091-2.916 14.478 0 5.415.969 10.222 2.916 14.478 1.924 4.227 4.66 7.838 8.17 10.791 3.524 2.955 7.766 5.188 12.706 6.688 4.94 1.482 10.416 2.252 16.43 2.252 3.102 0 6.255-.086 9.486-.256 3.21-.182 6.44-.627 9.67-1.35a62.47 62.47 0 0 0 9.524-3.02c2.213-.904 4.355-1.721 6.417-2.975V76.767h-35.486v9.49M784.718 84.748h-12.9l10.83-22.942 10.943 22.942h-8.873zm-7.695-41.106L744.876 110.9h14.582l7.732-16.369h31.073l7.809 16.369h16.397l-33.952-67.258h-11.494zM982.179 43.546l-20.187 27.246-18.924-27.246h-17.831l27.796 40.289v27.055h17.642V84.652L1000 43.546zM854.921 73.499V55.44H881.9v-.066c1.073.009 2.042.095 2.926.285 2.071.494 3.458 1.083 4.665 1.928 1.226.884 1.966 1.843 2.508 3.002.503 1.197.684 2.46.684 3.857 0 1.358-.342 2.527-.846 3.686-.531 1.207-1.234 2.08-2.47 2.964-1.196.845-2.649 1.377-4.721 1.862-2.1.465-4.627.542-7.762.542h-21.963m48.259 3.704c3.381-3.021 5.063-7.382 5.063-13.081 0-3.696-.655-6.84-1.947-9.386-1.32-2.537-3.153-4.617-5.566-6.194-2.433-1.605-5.301-2.765-8.674-3.496-2.926-.655-6.536-1.244-10.155-1.396v-.028H840.15v67.258h14.772V83.978h18.391l18.905 26.902h17.384l-19.978-28.023c5.49-1.047 10.287-2.736 13.556-5.653M715.674 87.787c-1.178 3.895-2.803 5.699-5.89 8.055-3.068 2.355-6.878 3.088-11.038 3.535-3.629.398-20.349.104-24.567.02v-44.28h19.589s9.956-.19 14.126 2.251c4.161 2.451 5.7 4.437 6.603 6.26.912 1.805 2.441 4.332 2.441 10.858 0 6.517-.086 9.414-1.264 13.301m10.953-30.228c-2.08-3.714-5.614-6.792-10.402-9.69-4.807-2.888-12.682-4.075-15.94-4.256-3.258-.18-27.435 0-27.435 0h-13.433v67.258h14.762v-.172h28.016c2.251 0 9.129-.455 14.848-4.35 5.7-3.885 6.878-5.52 10.042-10.592 3.162-5.064 4.17-8.826 4.436-11.723.275-2.898.456-8.322 0-13.576-.458-5.252-2.814-9.185-4.894-12.899"/></svg>