<svg xmlns="http://www.w3.org/2000/svg" width="415" height="415" overflow="hidden"><path fill="#1D1D1F" d="M192.416 250.936c0 34.254-17.957 56.009-46.521 56.009-28.563 0-46.642-21.755-46.642-56.01 0-34.254 17.958-55.768 46.642-55.768 28.684 0 46.52 21.274 46.52 55.769Zm-34.71-112.86c0 4.687 3.977 7.452 9.521 7.452 6.623.664 12.531-4.152 13.197-10.757.042-.42.062-.841.06-1.262v-4.447l-12.052.84c-7.592.962-10.726 3.486-10.726 8.174Zm254.058 69.11c.869 111.98-89.453 203.459-201.74 204.326-1.048.008-2.097.008-3.146 0-113.155 0-204.885-91.48-204.885-204.326C1.993 94.34 93.723 2.86 206.878 2.86c112.287-.866 204.018 89.209 204.886 201.189.008 1.046.008 2.09 0 3.137ZM237.01 127.139c-1.465 13.195 8.074 25.076 21.306 26.537.928.102 1.863.15 2.798.145 10.753 1.072 20.435-6.515 21.934-17.187h-9.882c-1.2 5.537-6.405 9.274-12.052 8.653-8.437 0-13.619-6.85-13.619-18.148 0-11.3 5.182-17.67 13.619-17.67 5.568-.204 10.551 3.424 12.052 8.775h9.882c-1.44-10.736-11.119-18.426-21.934-17.427-12.903-.507-23.775 9.513-24.284 22.38a23.328 23.328 0 0 0 .18 3.942Zm-56.283-9.255v4.447l-14.102.72c-12.052.842-19.162 6.13-19.162 15.265-.06 8.497 6.8 15.432 15.32 15.49.64.005 1.28-.03 1.914-.105 6.23.32 12.14-2.766 15.427-8.053h.844v7.21h9.64v-34.974c0-10.697-7.23-17.067-20.005-17.067-12.776 0-20.006 5.649-20.971 14.182h9.763c1.084-3.726 5.061-5.77 10.726-5.77 5.664 0 10.364 3.126 10.364 8.655ZM71.172 101.898l14.1 50.96h10.366l10.605-38.1h.845l10.484 38.1h10.968l13.98-50.96h-10.123l-9.16 39.303h-.723l-10.606-39.303h-9.642L91.661 141.2h-1.085l-9.16-39.303Zm139.202 148.918c0-44.351-24.828-72.115-64.48-72.115-39.65 0-64.598 27.884-64.598 72.115 0 44.23 24.827 72.115 64.599 72.115 39.771 0 64.479-27.765 64.479-72.115Zm12.052-97.716c1.845.135 3.698.135 5.544 0v-8.053a20.2 20.2 0 0 1-3.857 0c-5.061 0-7.231-2.404-7.231-7.812V110.07h11.088v-8.053h-11.088v-12.98h-10.124v12.98h-8.195v8.053h8.195v29.327c.362 9.856 4.821 13.702 16.029 13.702Zm104.371 127.884c0-19.712-12.052-31.37-40.736-37.74l-15.548-3.366c-19.162-4.207-26.635-12.02-26.635-22.836 0-14.183 13.498-22.716 30.974-22.716 15.453-2.072 29.7 8.649 31.938 24.038h17.476c-.723-24.038-20.971-40.384-48.932-40.384-27.96 0-49.414 16.225-49.414 39.302 0 19.832 12.053 32.452 40.254 38.582l15.427 3.365c19.525 4.327 27.238 12.019 27.238 24.038 0 13.702-13.74 24.039-32.782 24.039-19.042 0-34.107-9.135-36.155-24.04h-17.115c1.687 24.04 22.056 39.905 52.668 39.905s51.703-16.346 51.703-42.187Zm12.052-161.177c1.14-9.224-5.433-17.622-14.681-18.76a16.951 16.951 0 0 0-2.795-.11 15.915 15.915 0 0 0-15.668 9.014h-.723V81.826H294.86v71.033h10.123v-29.807c-.684-6.603 4.129-12.51 10.749-13.191a12.039 12.039 0 0 1 2.148-.03c7.23 0 10.967 4.207 10.967 12.019v30.649h10.123Z"/></svg>