<svg xmlns="http://www.w3.org/2000/svg" width="2500" height="1798" viewBox="-.477 -.221 100.477 72.379"><g fill="none" fill-rule="evenodd" transform="translate(0 -1)"><path fill="#4285f4" fill-rule="nonzero" d="M6.74 1.831c4.92-2.052 10.603.203 12.692 5.039l21.93 50.764c2.09 4.836-.206 10.419-5.127 12.471-4.921 2.053-10.604-.203-12.692-5.038L1.612 14.302C-.477 9.467 1.819 3.883 6.74 1.83z"/><path fill="#fbbc05" fill-rule="nonzero" d="M37.93 1.831c4.92-2.052 10.603.203 12.692 5.039l21.93 50.764c2.09 4.836-.206 10.419-5.127 12.471-4.921 2.053-10.604-.203-12.692-5.038L32.802 14.302c-2.089-4.835.207-10.419 5.128-12.471z"/><ellipse cx="89.783" cy="11.035" fill="#ea4335" rx="10.217" ry="10.039"/><ellipse cx="80.102" cy="33.228" fill="#34a853" rx="10.217" ry="10.039"/></g></svg>